<svg width="17" height="17" viewBox="0 0 17 17" fill="none" xmlns="http://www.w3.org/2000/svg">
<path d="M16 8.5C16 12.6421 12.6421 16 8.5 16C4.35786 16 1 12.6421 1 8.5C1 4.35786 4.35786 1 8.5 1C12.6421 1 16 4.35786 16 8.5Z" fill="#E1E7FE"/>
<path d="M5 7L8.5 10.5L12 7" fill="#E1E7FE"/>
<path d="M8.5 10.5L8.14645 10.8536C8.34171 11.0488 8.65829 11.0488 8.85355 10.8536L8.5 10.5ZM5.35355 6.64645C5.15829 6.45118 4.84171 6.45118 4.64645 6.64645C4.45118 6.84171 4.45118 7.15829 4.64645 7.35355L5.35355 6.64645ZM12.3536 7.35355C12.5488 7.15829 12.5488 6.84171 12.3536 6.64645C12.1583 6.45118 11.8417 6.45118 11.6464 6.64645L12.3536 7.35355ZM15.5 8.5C15.5 12.366 12.366 15.5 8.5 15.5V16.5C12.9183 16.5 16.5 12.9183 16.5 8.5H15.5ZM8.5 15.5C4.63401 15.5 1.5 12.366 1.5 8.5H0.5C0.5 12.9183 4.08172 16.5 8.5 16.5V15.5ZM1.5 8.5C1.5 4.63401 4.63401 1.5 8.5 1.5V0.5C4.08172 0.5 0.5 4.08172 0.5 8.5H1.5ZM8.5 1.5C12.366 1.5 15.5 4.63401 15.5 8.5H16.5C16.5 4.08172 12.9183 0.5 8.5 0.5V1.5ZM4.64645 7.35355L8.14645 10.8536L8.85355 10.1464L5.35355 6.64645L4.64645 7.35355ZM8.85355 10.8536L12.3536 7.35355L11.6464 6.64645L8.14645 10.1464L8.85355 10.8536Z" fill="#516CF7"/>
</svg>
