<svg width="27" height="25" viewBox="0 0 27 25" fill="none" xmlns="http://www.w3.org/2000/svg">
<path d="M21.375 20.8333H5.625C5.32663 20.8333 5.04048 20.9431 4.82951 21.1384C4.61853 21.3338 4.5 21.5987 4.5 21.875C4.5 22.1513 4.61853 22.4162 4.82951 22.6116C5.04048 22.8069 5.32663 22.9167 5.625 22.9167H21.375C21.6734 22.9167 21.9595 22.8069 22.1705 22.6116C22.3815 22.4162 22.5 22.1513 22.5 21.875C22.5 21.5987 22.3815 21.3338 22.1705 21.1384C21.9595 20.9431 21.6734 20.8333 21.375 20.8333ZM12.7012 18.4479C12.8082 18.5427 12.9344 18.6171 13.0725 18.6667C13.2072 18.7218 13.3528 18.7502 13.5 18.7502C13.6472 18.7502 13.7928 18.7218 13.9275 18.6667C14.0656 18.6171 14.1918 18.5427 14.2988 18.4479L18.7987 14.2812C19.0106 14.0851 19.1296 13.8191 19.1296 13.5417C19.1296 13.2643 19.0106 12.9982 18.7987 12.8021C18.5869 12.6059 18.2996 12.4957 18 12.4957C17.7004 12.4957 17.4131 12.6059 17.2012 12.8021L14.625 15.1979V3.12499C14.625 2.84873 14.5065 2.58378 14.2955 2.38843C14.0845 2.19307 13.7984 2.08333 13.5 2.08333C13.2016 2.08333 12.9155 2.19307 12.7045 2.38843C12.4935 2.58378 12.375 2.84873 12.375 3.12499V15.1979L9.79875 12.8021C9.69386 12.705 9.56933 12.6279 9.43228 12.5753C9.29523 12.5228 9.14834 12.4957 9 12.4957C8.85166 12.4957 8.70477 12.5228 8.56772 12.5753C8.43067 12.6279 8.30614 12.705 8.20125 12.8021C8.09636 12.8992 8.01315 13.0145 7.95638 13.1414C7.89962 13.2683 7.8704 13.4043 7.8704 13.5417C7.8704 13.679 7.89962 13.815 7.95638 13.9419C8.01315 14.0688 8.09636 14.1841 8.20125 14.2812L12.7012 18.4479Z" fill="white"/>
</svg>
