<svg width="23" height="30" viewBox="0 0 23 30" fill="none" xmlns="http://www.w3.org/2000/svg">
<path d="M22.9787 19.5719C22.9787 19.9358 22.9147 20.3263 22.7867 20.7433C22.6662 21.1603 22.4629 21.547 22.1768 21.9033C21.8982 22.2597 21.533 22.5592 21.0812 22.8018C20.6295 23.0368 20.076 23.1544 19.421 23.1544H8.27329C8.06246 23.1544 7.86669 23.1165 7.68597 23.0406C7.50526 22.9648 7.34714 22.8625 7.2116 22.7336C7.0836 22.5971 6.98195 22.4379 6.90665 22.2559C6.83136 22.0739 6.79371 21.8768 6.79371 21.6645V8.33549C6.79371 8.13077 6.83136 7.93744 6.90665 7.75547C6.98195 7.5735 7.0836 7.41428 7.2116 7.27781C7.34714 7.14133 7.50526 7.03519 7.68597 6.95937C7.86669 6.88355 8.06246 6.84564 8.27329 6.84564H18.0995C18.4609 6.84564 18.8487 6.91008 19.2628 7.03898C19.677 7.16787 20.061 7.37637 20.4149 7.66449C20.7763 7.94502 21.0737 8.31274 21.3071 8.76766C21.5481 9.22257 21.6686 9.77984 21.6686 10.4395V10.9967C21.6686 11.5199 21.582 12.0848 21.4088 12.6913C21.2356 13.2903 20.957 13.8589 20.573 14.3972C20.9043 14.602 21.213 14.8484 21.4991 15.1365C21.7928 15.4246 22.0488 15.7582 22.2672 16.1373C22.4855 16.5164 22.6587 16.9448 22.7867 17.4224C22.9147 17.9001 22.9787 18.427 22.9787 19.0033V19.5719ZM20.0422 19.0033C20.0422 18.6166 19.9819 18.2716 19.8614 17.9683C19.741 17.6575 19.5715 17.3921 19.3532 17.1722C19.1348 16.9523 18.8713 16.7855 18.5626 16.6718C18.2539 16.5505 17.9075 16.4898 17.5235 16.4898H15.4251C15.4251 16.4898 14.3139 16.4898 14.3139 15C14.3139 13.5102 15.4251 13.5102 15.4251 13.5102H16.202C16.586 13.5102 16.9324 13.4533 17.2411 13.3396C17.5498 13.2182 17.8134 13.0477 18.0317 12.8278C18.2501 12.6079 18.4157 12.3463 18.5287 12.043C18.6492 11.7322 18.7094 11.3834 18.7094 10.9967V10.4395C18.7094 10.0149 18.5061 9.80259 18.0995 9.80259H9.73028V20.1974H19.421C19.4737 20.1974 19.5377 20.1936 19.613 20.186C19.6883 20.1785 19.756 20.1557 19.8163 20.1178C19.8765 20.0799 19.9292 20.0154 19.9744 19.9245C20.0196 19.8335 20.0422 19.7084 20.0422 19.5492V19.0033Z" fill="url(#paint0_linear_319_30)"/>
<path d="M2.3929 30C2.05192 30 1.7353 29.9228 1.44304 29.7683C1.15078 29.6139 0.895054 29.4054 0.675857 29.1428C0.468838 28.8648 0.304438 28.5405 0.182662 28.1698C0.0608856 27.7991 0 27.3976 0 26.9651V3.03488C0 2.61787 0.0608856 2.22403 0.182662 1.85336C0.304438 1.48269 0.468838 1.15835 0.675857 0.880344C0.895054 0.60234 1.15078 0.386118 1.44304 0.231671C1.7353 0.0772248 2.05192 0 2.3929 0H21.747C21.747 0 22.9779 0 22.9779 1.71141C22.9779 3.42282 21.7454 3.42282 21.7454 3.42282H5.07043C4.83195 3.42282 4.61051 3.47665 4.40611 3.58429C4.2017 3.69194 4.02285 3.84263 3.86954 4.0364C3.72476 4.23016 3.60978 4.45621 3.52461 4.71456C3.43944 4.9729 3.39685 5.2474 3.39685 5.53804V24.462C3.39685 24.7634 3.43944 25.0432 3.52461 25.3016C3.60978 25.5599 3.72476 25.786 3.86954 25.9798C4.02285 26.1628 4.2017 26.3081 4.40611 26.4157C4.61051 26.5234 4.83195 26.5772 5.07043 26.5772H21.747C21.747 26.5772 22.9787 26.5772 22.9787 28.2886C22.9787 30 21.747 30 21.747 30H2.3929Z" fill="url(#paint1_linear_319_30)"/>
<defs>
<linearGradient id="paint0_linear_319_30" x1="17.3475" y1="-9.27483e-09" x2="-4.77826" y2="28.6933" gradientUnits="userSpaceOnUse">
<stop stop-color="#FA77E7"/>
<stop offset="0.5" stop-color="#616FDE"/>
<stop offset="1" stop-color="#04F8CA"/>
</linearGradient>
<linearGradient id="paint1_linear_319_30" x1="17.3475" y1="-9.27483e-09" x2="-4.77826" y2="28.6933" gradientUnits="userSpaceOnUse">
<stop stop-color="#FA77E7"/>
<stop offset="0.5" stop-color="#616FDE"/>
<stop offset="1" stop-color="#04F8CA"/>
</linearGradient>
</defs>
</svg>
