<svg width="28" height="22" viewBox="0 0 28 22" fill="none" xmlns="http://www.w3.org/2000/svg">
<path d="M25.2 0H2.8C1.26 0 0.014 1.2375 0.014 2.75L0 19.25C0 20.7625 1.26 22 2.8 22H25.2C26.74 22 28 20.7625 28 19.25V2.75C28 1.2375 26.74 0 25.2 0ZM24.64 5.84375L14.742 11.9213C14.294 12.1963 13.706 12.1963 13.258 11.9213L3.36 5.84375C3.21962 5.76635 3.09669 5.66178 2.99864 5.53637C2.9006 5.41096 2.82949 5.26732 2.78961 5.11413C2.74972 4.96095 2.7419 4.80141 2.76662 4.64517C2.79133 4.48893 2.84807 4.33924 2.93339 4.20516C3.01872 4.07108 3.13085 3.9554 3.26302 3.86512C3.39518 3.77483 3.54462 3.71183 3.70229 3.67991C3.85997 3.64799 4.0226 3.64783 4.18034 3.67943C4.33808 3.71103 4.48765 3.77373 4.62 3.86375L14 9.625L23.38 3.86375C23.5124 3.77373 23.6619 3.71103 23.8197 3.67943C23.9774 3.64783 24.14 3.64799 24.2977 3.67991C24.4554 3.71183 24.6048 3.77483 24.737 3.86512C24.8691 3.9554 24.9813 4.07108 25.0666 4.20516C25.1519 4.33924 25.2087 4.48893 25.2334 4.64517C25.2581 4.80141 25.2503 4.96095 25.2104 5.11413C25.1705 5.26732 25.0994 5.41096 25.0014 5.53637C24.9033 5.66178 24.7804 5.76635 24.64 5.84375V5.84375Z" fill="#545667"/>
</svg>
