<svg width="30" height="30" viewBox="0 0 30 30" fill="none" xmlns="http://www.w3.org/2000/svg">
<path d="M15 0.370049C11.4383 0.370196 7.99274 1.63772 5.27999 3.94582C2.56724 6.25392 0.764293 9.45198 0.193741 12.9678C-0.376811 16.4836 0.322268 20.0877 2.16589 23.1352C4.00951 26.1827 6.87737 28.4748 10.2563 29.6013C11.0063 29.7326 11.2876 29.2826 11.2876 28.8888C11.2876 28.5325 11.2688 27.3513 11.2688 26.095C7.50004 26.7888 6.52504 25.1763 6.22504 24.3326C5.89215 23.512 5.36445 22.7848 4.68754 22.2138C4.16254 21.9325 3.41254 21.2388 4.66878 21.2201C5.14846 21.2721 5.60852 21.439 6.00999 21.7067C6.41145 21.9743 6.74249 22.3348 6.97504 22.7575C7.1802 23.1261 7.45606 23.4505 7.78683 23.7123C8.11759 23.974 8.49675 24.1679 8.90259 24.2829C9.30843 24.3979 9.73296 24.4316 10.1519 24.3822C10.5708 24.3328 10.9758 24.2012 11.3438 23.995C11.4087 23.2325 11.7486 22.5195 12.3 21.9888C8.96254 21.6138 5.47504 20.32 5.47504 14.5826C5.45396 13.0918 6.00407 11.6495 7.01254 10.5513C6.55396 9.25567 6.60762 7.83377 7.16254 6.57634C7.16254 6.57634 8.41875 6.18258 11.2875 8.11384C13.742 7.4388 16.3331 7.4388 18.7875 8.11384C21.6563 6.16384 22.9125 6.57634 22.9125 6.57634C23.4675 7.83375 23.5212 9.25568 23.0625 10.5513C24.0741 11.6476 24.6246 13.0912 24.6 14.5826C24.6 20.3388 21.0938 21.6138 17.7563 21.9888C18.1143 22.3517 18.39 22.7873 18.5647 23.2661C18.7394 23.7449 18.809 24.2557 18.7688 24.7638C18.7688 26.7701 18.75 28.3826 18.75 28.8888C18.75 29.2826 19.0313 29.7513 19.7813 29.6013C23.1543 28.4656 26.0139 26.1682 27.8497 23.1191C29.6854 20.07 30.3779 16.4678 29.8034 12.9554C29.2289 9.44302 27.4248 6.24911 24.7132 3.94381C22.0017 1.63852 18.5591 0.371901 15 0.370049V0.370049Z" fill="#545667"/>
</svg>
