<svg width="46" height="46" viewBox="0 0 46 46" fill="none" xmlns="http://www.w3.org/2000/svg">
<circle cx="23" cy="23" r="23" fill="#E1E7FE"/>
<path d="M32.1756 12.1667H13.8239C13.6177 12.1638 13.4128 12.2016 13.2211 12.2779C13.0295 12.3542 12.8547 12.4675 12.7068 12.6114C12.5589 12.7552 12.4408 12.9268 12.3593 13.1163C12.2777 13.3058 12.2343 13.5095 12.2314 13.7158V32.2842C12.2343 32.4905 12.2777 32.6942 12.3593 32.8837C12.4408 33.0732 12.5589 33.2448 12.7068 33.3886C12.8547 33.5325 13.0295 33.6458 13.2211 33.7221C13.4128 33.7984 13.6177 33.8362 13.8239 33.8333H32.1756C32.3819 33.8362 32.5867 33.7984 32.7784 33.7221C32.9701 33.6458 33.1449 33.5325 33.2927 33.3886C33.4406 33.2448 33.5587 33.0732 33.6403 32.8837C33.7219 32.6942 33.7653 32.4905 33.7681 32.2842V13.7158C33.7653 13.5095 33.7219 13.3058 33.6403 13.1163C33.5587 12.9268 33.4406 12.7552 33.2927 12.6114C33.1449 12.4675 32.9701 12.3542 32.7784 12.2779C32.5867 12.2016 32.3819 12.1638 32.1756 12.1667V12.1667ZM18.7639 30.3017H15.5139V20.5517H18.7639V30.3017ZM17.1389 19.1867C16.6907 19.1867 16.2609 19.0086 15.9439 18.6917C15.627 18.3747 15.4489 17.9449 15.4489 17.4967C15.4489 17.0485 15.627 16.6186 15.9439 16.3017C16.2609 15.9847 16.6907 15.8067 17.1389 15.8067C17.3769 15.7797 17.618 15.8033 17.8462 15.8759C18.0745 15.9485 18.2848 16.0685 18.4635 16.228C18.6422 16.3876 18.7851 16.5831 18.883 16.8017C18.9808 17.0203 19.0314 17.2571 19.0314 17.4967C19.0314 17.7362 18.9808 17.973 18.883 18.1916C18.7851 18.4103 18.6422 18.6058 18.4635 18.7653C18.2848 18.9248 18.0745 19.0448 17.8462 19.1175C17.618 19.1901 17.3769 19.2137 17.1389 19.1867V19.1867ZM30.4856 30.3017H27.2356V25.0692C27.2356 23.7583 26.7698 22.9025 25.5889 22.9025C25.2235 22.9052 24.8677 23.0198 24.5694 23.2309C24.2711 23.4421 24.0446 23.7396 23.9206 24.0833C23.8358 24.338 23.7991 24.6061 23.8123 24.8742V30.2908H20.5623C20.5623 30.2908 20.5623 21.4292 20.5623 20.5408H23.8123V21.9167C24.1075 21.4044 24.5369 20.9823 25.0543 20.696C25.5716 20.4096 26.1572 20.2698 26.7481 20.2917C28.9148 20.2917 30.4856 21.6892 30.4856 24.69V30.3017Z" fill="#516CF7"/>
</svg>
