<svg width="46" height="46" viewBox="0 0 46 46" fill="none" xmlns="http://www.w3.org/2000/svg">
<circle cx="23" cy="23" r="23" fill="#E1E7FE"/>
<path d="M22.4999 10C19.2944 10.0001 16.1934 11.1698 13.752 13.2996C11.3105 15.4294 9.68786 18.3805 9.17437 21.6247C8.66087 24.869 9.29004 28.1947 10.9493 31.0068C12.6085 33.819 15.1896 35.934 18.2306 36.9735C18.9056 37.0946 19.1587 36.6794 19.1587 36.316C19.1587 35.9873 19.1419 34.8973 19.1419 33.7381C15.75 34.3782 14.8725 32.8903 14.6025 32.1117C14.3029 31.3545 13.828 30.6835 13.2188 30.1566C12.7463 29.8971 12.0713 29.2569 13.2019 29.2396C13.6336 29.2877 14.0476 29.4417 14.409 29.6887C14.7703 29.9356 15.0682 30.2682 15.2775 30.6583C15.4621 30.9984 15.7104 31.2978 16.0081 31.5393C16.3058 31.7809 16.647 31.9598 17.0123 32.0659C17.3775 32.172 17.7596 32.2031 18.1366 32.1575C18.5136 32.112 18.8781 31.9905 19.2093 31.8003C19.2678 31.0966 19.5736 30.4387 20.07 29.949C17.0662 29.603 13.9275 28.4091 13.9275 23.1148C13.9085 21.7392 14.4036 20.4082 15.3112 19.3949C14.8985 18.1993 14.9468 16.8872 15.4462 15.7269C15.4462 15.7269 16.5768 15.3636 19.1587 17.1457C21.3677 16.5228 23.6997 16.5228 25.9087 17.1457C28.4905 15.3463 29.6211 15.7269 29.6211 15.7269C30.1206 16.8872 30.1689 18.1993 29.7561 19.3949C30.6665 20.4065 31.162 21.7386 31.1399 23.1148C31.1399 28.4264 27.9843 29.603 24.9805 29.949C25.3027 30.2838 25.5509 30.6858 25.7081 31.1276C25.8653 31.5695 25.928 32.0408 25.8918 32.5097C25.8918 34.361 25.8749 35.8489 25.8749 36.3161C25.8749 36.6794 26.128 37.112 26.803 36.9736C29.8387 35.9256 32.4123 33.8056 34.0645 30.992C35.7167 28.1784 36.3399 24.8544 35.8228 21.6133C35.3058 18.3722 33.6821 15.425 31.2418 13.2977C28.8014 11.1705 25.7031 10.0017 22.4999 10V10Z" fill="#516CF7"/>
</svg>
