<svg width="46" height="46" viewBox="0 0 46 46" fill="none" xmlns="http://www.w3.org/2000/svg">
<circle cx="23" cy="23" r="23" fill="#E1E7FE"/>
<path d="M31.8 14H14.2C12.99 14 12.011 15.0125 12.011 16.25L12 29.75C12 30.9875 12.99 32 14.2 32H31.8C33.01 32 34 30.9875 34 29.75V16.25C34 15.0125 33.01 14 31.8 14ZM31.36 18.7813L23.583 23.7538C23.231 23.9788 22.769 23.9788 22.417 23.7538L14.64 18.7813C14.5297 18.7179 14.4331 18.6324 14.3561 18.5298C14.279 18.4272 14.2232 18.3096 14.1918 18.1843C14.1605 18.059 14.1544 17.9284 14.1738 17.8006C14.1932 17.6728 14.2378 17.5503 14.3048 17.4406C14.3718 17.3309 14.46 17.2362 14.5638 17.1624C14.6676 17.0885 14.7851 17.037 14.9089 17.0108C15.0328 16.9847 15.1606 16.9846 15.2846 17.0104C15.4085 17.0363 15.526 17.0876 15.63 17.1613L23 21.875L30.37 17.1613C30.474 17.0876 30.5915 17.0363 30.7155 17.0104C30.8394 16.9846 30.9672 16.9847 31.0911 17.0108C31.2149 17.037 31.3324 17.0885 31.4362 17.1624C31.54 17.2362 31.6282 17.3309 31.6952 17.4406C31.7622 17.5503 31.8068 17.6728 31.8262 17.8006C31.8456 17.9284 31.8395 18.059 31.8082 18.1843C31.7768 18.3096 31.721 18.4272 31.6439 18.5298C31.5669 18.6324 31.4703 18.7179 31.36 18.7813Z" fill="#516CF7"/>
</svg>
