<svg width="115" height="30" viewBox="0 0 115 30" fill="none" xmlns="http://www.w3.org/2000/svg">
<path d="M42.8652 5.94828C43.6709 6.12069 44.2897 6.46552 44.7217 6.98276C45.1654 7.48851 45.3873 8.14368 45.3873 8.94828C45.3873 9.98276 44.9961 10.7816 44.2138 11.3448C43.4432 11.8966 42.2989 12.1724 40.7811 12.1724H35.1415V0.103448H40.4308C41.7969 0.103448 42.8536 0.373563 43.6008 0.913793C44.3598 1.45402 44.7392 2.21839 44.7392 3.2069C44.7392 3.87356 44.5699 4.44253 44.2313 4.91379C43.9044 5.37356 43.449 5.71839 42.8652 5.94828ZM36.4376 1.15517V5.53448H40.3432C41.3357 5.53448 42.1005 5.35057 42.6376 4.98276C43.1747 4.60345 43.4432 4.05747 43.4432 3.34483C43.4432 2.63218 43.1747 2.09195 42.6376 1.72414C42.1005 1.34483 41.3357 1.15517 40.3432 1.15517H36.4376ZM40.7636 11.1207C41.8611 11.1207 42.6901 10.9368 43.2505 10.569C43.811 10.2011 44.0912 9.62644 44.0912 8.84483C44.0912 7.33908 42.982 6.58621 40.7636 6.58621H36.4376V11.1207H40.7636Z" fill="#545667"/>
<path d="M55.8415 12.1724L53.0393 8.2931C52.724 8.32759 52.3971 8.34483 52.0585 8.34483H48.7658V12.1724H47.4698V0.103448H52.0585C53.6231 0.103448 54.8491 0.471264 55.7364 1.2069C56.6238 1.94253 57.0675 2.95402 57.0675 4.24138C57.0675 5.18391 56.8223 5.98276 56.3319 6.63793C55.8532 7.28161 55.1643 7.74713 54.2652 8.03448L57.2602 12.1724H55.8415ZM52.0234 7.25862C53.2378 7.25862 54.166 6.99425 54.8082 6.46552C55.4504 5.93678 55.7715 5.1954 55.7715 4.24138C55.7715 3.26437 55.4504 2.51724 54.8082 2C54.166 1.47126 53.2378 1.2069 52.0234 1.2069H48.7658V7.25862H52.0234Z" fill="#545667"/>
<path d="M69.1812 0.103448V12.1724H67.9377V10.1379C67.1321 11.5632 65.7601 12.2759 63.8219 12.2759C62.3624 12.2759 61.2181 11.8448 60.3891 10.9828C59.5602 10.1207 59.1457 8.8908 59.1457 7.2931V0.103448H60.4417V7.25862C60.4417 8.53448 60.7569 9.5 61.3875 10.1552C62.0296 10.8103 62.9229 11.1379 64.0671 11.1379C65.2697 11.1379 66.2038 10.7931 66.8694 10.1034C67.5466 9.4023 67.8852 8.35632 67.8852 6.96552V0.103448H69.1812Z" fill="#545667"/>
<path d="M77.6917 0C79.1629 0 80.3129 0.431034 81.1419 1.2931C81.9826 2.15517 82.403 3.38506 82.403 4.98276V12.1724H81.1069V5.01724C81.1069 3.74138 80.7858 2.77586 80.1436 2.12069C79.5015 1.46552 78.6024 1.13793 77.4465 1.13793C76.2322 1.13793 75.2864 1.48851 74.6092 2.18965C73.932 2.87931 73.5934 3.91954 73.5934 5.31034V12.1724H72.2973V0.103448H73.5408V2.13793C74.3231 0.712644 75.7067 0 77.6917 0Z" fill="#545667"/>
<path d="M90.4214 0C92.0093 0 93.2587 0.45977 94.1694 1.37931C95.0918 2.28736 95.553 3.60345 95.553 5.32759V12.1724H94.2745V8.62069H86.5683V12.1724H85.3073V5.32759C85.3073 3.60345 85.7626 2.28736 86.6734 1.37931C87.5958 0.45977 88.8451 0 90.4214 0ZM94.2745 7.51724V5.2069C94.2745 3.86207 93.9359 2.85057 93.2587 2.17241C92.5815 1.48276 91.6357 1.13793 90.4214 1.13793C89.2071 1.13793 88.2613 1.48276 87.5841 2.17241C86.9069 2.85057 86.5683 3.86207 86.5683 5.2069V7.51724H94.2745Z" fill="#545667"/>
<path d="M40.4658 30C39.2515 30 38.154 29.7356 37.1732 29.2069C36.2041 28.6782 35.4393 27.9483 34.8788 27.0172C34.3301 26.0747 34.0557 25.023 34.0557 23.8621C34.0557 22.7011 34.3301 21.6552 34.8788 20.7241C35.4393 19.7816 36.2099 19.046 37.1907 18.5172C38.1715 17.9885 39.269 17.7241 40.4833 17.7241C41.3941 17.7241 42.2347 17.8736 43.0053 18.1724C43.776 18.4713 44.4298 18.908 44.9669 19.4828L44.1438 20.2931C43.1863 19.3391 41.9779 18.8621 40.5184 18.8621C39.5492 18.8621 38.6677 19.0805 37.8737 19.5172C37.0798 19.954 36.4551 20.5517 35.9997 21.3103C35.556 22.069 35.3342 22.9195 35.3342 23.8621C35.3342 24.8046 35.556 25.6552 35.9997 26.4138C36.4551 27.1724 37.0798 27.7701 37.8737 28.2069C38.6677 28.6437 39.5492 28.8621 40.5184 28.8621C41.9895 28.8621 43.198 28.3793 44.1438 27.4138L44.9669 28.2241C44.4298 28.7989 43.7701 29.2414 42.9878 29.5517C42.2172 29.8506 41.3765 30 40.4658 30Z" fill="#545667"/>
<path d="M51.8631 17.7241C53.451 17.7241 54.7004 18.1839 55.6111 19.1034C56.5335 20.0115 56.9947 21.3276 56.9947 23.0517V29.8966H55.7162V26.3448H48.01V29.8966H46.749V23.0517C46.749 21.3276 47.2043 20.0115 48.1151 19.1034C49.0375 18.1839 50.2868 17.7241 51.8631 17.7241ZM55.7162 25.2414V22.931C55.7162 21.5862 55.3776 20.5747 54.7004 19.8966C54.0232 19.2069 53.0774 18.8621 51.8631 18.8621C50.6488 18.8621 49.703 19.2069 49.0258 19.8966C48.3486 20.5747 48.01 21.5862 48.01 22.931V25.2414H55.7162Z" fill="#545667"/>
<path d="M73.1213 17.7241C74.5224 17.7241 75.6142 18.1207 76.3965 18.9138C77.1787 19.7069 77.5699 20.8563 77.5699 22.3621V29.8966H76.2914V22.3966C76.2914 21.2241 75.9878 20.3448 75.3806 19.7586C74.7852 19.1609 73.9678 18.8621 72.9287 18.8621C71.8311 18.8621 70.9729 19.1782 70.3541 19.8103C69.7353 20.431 69.4259 21.3851 69.4259 22.6724V29.8966H68.1473V22.3966C68.1473 21.2241 67.8554 20.3448 67.2716 19.7586C66.6878 19.1609 65.8763 18.8621 64.8372 18.8621C63.728 18.8621 62.8581 19.1782 62.2276 19.8103C61.6087 20.431 61.2993 21.3851 61.2993 22.6724V29.8966H60.0033V17.8276H61.2468V19.8448C61.5854 19.1552 62.0875 18.6322 62.753 18.2759C63.4185 17.908 64.2067 17.7241 65.1174 17.7241C66.0748 17.7241 66.8922 17.9253 67.5694 18.3276C68.2583 18.7184 68.7545 19.2701 69.0581 19.9828C69.4083 19.2471 69.9338 18.6897 70.6343 18.3103C71.3466 17.9195 72.1756 17.7241 73.1213 17.7241Z" fill="#545667"/>
<path d="M85.1813 17.8276C86.7459 17.8276 87.9718 18.1954 88.8592 18.931C89.7466 19.6667 90.1903 20.6782 90.1903 21.9655C90.1903 23.2529 89.7466 24.2644 88.8592 25C87.9718 25.7241 86.7459 26.0862 85.1813 26.0862H81.8886V29.8966H80.5926V17.8276H85.1813ZM85.1462 24.9655C86.3605 24.9655 87.2888 24.7069 87.931 24.1897C88.5732 23.6609 88.8942 22.9195 88.8942 21.9655C88.8942 20.9885 88.5732 20.2414 87.931 19.7241C87.2888 19.1954 86.3605 18.931 85.1462 18.931H81.8886V24.9655H85.1462Z" fill="#545667"/>
<path d="M97.6473 30C96.433 30 95.3296 29.7356 94.3371 29.2069C93.3564 28.6667 92.5857 27.931 92.0253 27C91.4765 26.069 91.2021 25.023 91.2021 23.8621C91.2021 22.7011 91.4765 21.6552 92.0253 20.7241C92.5857 19.7931 93.3564 19.0632 94.3371 18.5345C95.3296 17.9943 96.433 17.7241 97.6473 17.7241C98.8616 17.7241 99.9533 17.9885 100.922 18.5172C101.903 19.046 102.674 19.7816 103.234 20.7241C103.795 21.6552 104.075 22.7011 104.075 23.8621C104.075 25.023 103.795 26.0747 103.234 27.0172C102.674 27.9483 101.903 28.6782 100.922 29.2069C99.9533 29.7356 98.8616 30 97.6473 30ZM97.6473 28.8621C98.6164 28.8621 99.4921 28.6494 100.274 28.2241C101.057 27.7874 101.67 27.1897 102.113 26.431C102.557 25.6609 102.779 24.8046 102.779 23.8621C102.779 22.9195 102.557 22.069 102.113 21.3103C101.67 20.5402 101.057 19.9425 100.274 19.5172C99.4921 19.0805 98.6164 18.8621 97.6473 18.8621C96.6782 18.8621 95.7967 19.0805 95.0027 19.5172C94.2204 19.9425 93.6016 20.5402 93.1462 21.3103C92.7025 22.069 92.4807 22.9195 92.4807 23.8621C92.4807 24.8046 92.7025 25.6609 93.1462 26.431C93.6016 27.1897 94.2204 27.7874 95.0027 28.2241C95.7967 28.6494 96.6782 28.8621 97.6473 28.8621Z" fill="#545667"/>
<path d="M109.484 30C108.574 30 107.698 29.8563 106.857 29.569C106.028 29.2816 105.386 28.9023 104.931 28.431L105.439 27.4483C105.882 27.8851 106.472 28.2414 107.208 28.5172C107.943 28.7816 108.702 28.9138 109.484 28.9138C110.582 28.9138 111.405 28.7184 111.954 28.3276C112.503 27.9253 112.777 27.408 112.777 26.7759C112.777 26.2931 112.625 25.908 112.322 25.6207C112.03 25.3333 111.668 25.1149 111.236 24.9655C110.804 24.8046 110.203 24.6322 109.432 24.4483C108.51 24.2184 107.774 24 107.225 23.7931C106.676 23.5747 106.204 23.2471 105.807 22.8103C105.421 22.3736 105.229 21.7816 105.229 21.0345C105.229 20.4253 105.392 19.8736 105.719 19.3793C106.046 18.8736 106.548 18.4713 107.225 18.1724C107.902 17.8736 108.743 17.7241 109.747 17.7241C110.448 17.7241 111.131 17.8218 111.796 18.0172C112.474 18.2011 113.057 18.4598 113.548 18.7931L113.11 19.8103C112.596 19.477 112.047 19.2299 111.464 19.069C110.88 18.8966 110.308 18.8103 109.747 18.8103C108.673 18.8103 107.862 19.0172 107.313 19.431C106.776 19.8333 106.507 20.3563 106.507 21C106.507 21.4828 106.653 21.8736 106.945 22.1724C107.249 22.4598 107.622 22.6839 108.066 22.8448C108.521 22.9943 109.128 23.1609 109.887 23.3448C110.786 23.5632 111.51 23.7816 112.059 24C112.62 24.2069 113.092 24.5287 113.478 24.9655C113.863 25.3908 114.056 25.9713 114.056 26.7069C114.056 27.3161 113.886 27.8736 113.548 28.3793C113.221 28.8736 112.713 29.2701 112.024 29.569C111.335 29.8563 110.489 30 109.484 30Z" fill="#545667"/>
<path d="M22.9787 19.5719C22.9787 19.9358 22.9147 20.3263 22.7867 20.7433C22.6662 21.1603 22.4629 21.547 22.1768 21.9033C21.8982 22.2597 21.533 22.5592 21.0812 22.8018C20.6295 23.0368 20.076 23.1544 19.421 23.1544H8.27329C8.06246 23.1544 7.86669 23.1165 7.68597 23.0406C7.50526 22.9648 7.34714 22.8625 7.2116 22.7336C7.0836 22.5971 6.98195 22.4379 6.90665 22.2559C6.83136 22.0739 6.79371 21.8768 6.79371 21.6645V8.33549C6.79371 8.13077 6.83136 7.93744 6.90665 7.75547C6.98195 7.5735 7.0836 7.41428 7.2116 7.27781C7.34714 7.14133 7.50526 7.03519 7.68597 6.95937C7.86669 6.88355 8.06246 6.84564 8.27329 6.84564H18.0995C18.4609 6.84564 18.8487 6.91008 19.2628 7.03898C19.677 7.16787 20.061 7.37637 20.4149 7.66449C20.7763 7.94502 21.0737 8.31274 21.3071 8.76766C21.5481 9.22257 21.6686 9.77984 21.6686 10.4395V10.9967C21.6686 11.5199 21.582 12.0848 21.4088 12.6913C21.2356 13.2903 20.957 13.8589 20.573 14.3972C20.9043 14.602 21.213 14.8484 21.4991 15.1365C21.7928 15.4246 22.0488 15.7582 22.2672 16.1373C22.4855 16.5164 22.6587 16.9448 22.7867 17.4224C22.9147 17.9001 22.9787 18.427 22.9787 19.0033V19.5719ZM20.0422 19.0033C20.0422 18.6166 19.9819 18.2716 19.8614 17.9683C19.741 17.6575 19.5715 17.3921 19.3532 17.1722C19.1348 16.9523 18.8713 16.7855 18.5626 16.6718C18.2539 16.5505 17.9075 16.4898 17.5235 16.4898H15.4251C15.4251 16.4898 14.3139 16.4898 14.3139 15C14.3139 13.5102 15.4251 13.5102 15.4251 13.5102H16.202C16.586 13.5102 16.9324 13.4533 17.2411 13.3396C17.5498 13.2182 17.8134 13.0477 18.0317 12.8278C18.2501 12.6079 18.4157 12.3463 18.5287 12.043C18.6492 11.7322 18.7094 11.3834 18.7094 10.9967V10.4395C18.7094 10.0149 18.5061 9.80259 18.0995 9.80259H9.73028V20.1974H19.421C19.4737 20.1974 19.5377 20.1936 19.613 20.186C19.6883 20.1785 19.756 20.1557 19.8163 20.1178C19.8765 20.0799 19.9292 20.0154 19.9744 19.9245C20.0196 19.8335 20.0422 19.7084 20.0422 19.5492V19.0033Z" fill="url(#paint0_linear_319_27)"/>
<path d="M2.3929 30C2.05192 30 1.7353 29.9228 1.44304 29.7683C1.15078 29.6139 0.895054 29.4054 0.675857 29.1428C0.468838 28.8648 0.304438 28.5405 0.182662 28.1698C0.0608856 27.7991 0 27.3976 0 26.9651V3.03488C0 2.61787 0.0608856 2.22403 0.182662 1.85336C0.304438 1.48269 0.468838 1.15835 0.675857 0.880344C0.895054 0.60234 1.15078 0.386118 1.44304 0.231671C1.7353 0.0772248 2.05192 0 2.3929 0H21.747C21.747 0 22.9779 0 22.9779 1.71141C22.9779 3.42282 21.7454 3.42282 21.7454 3.42282H5.07043C4.83195 3.42282 4.61051 3.47665 4.40611 3.58429C4.2017 3.69194 4.02285 3.84263 3.86954 4.0364C3.72476 4.23016 3.60978 4.45621 3.52461 4.71456C3.43944 4.9729 3.39685 5.2474 3.39685 5.53804V24.462C3.39685 24.7634 3.43944 25.0432 3.52461 25.3016C3.60978 25.5599 3.72476 25.786 3.86954 25.9798C4.02285 26.1628 4.2017 26.3081 4.40611 26.4157C4.61051 26.5234 4.83195 26.5772 5.07043 26.5772H21.747C21.747 26.5772 22.9787 26.5772 22.9787 28.2886C22.9787 30 21.747 30 21.747 30H2.3929Z" fill="url(#paint1_linear_319_27)"/>
<defs>
<linearGradient id="paint0_linear_319_27" x1="17.3475" y1="-9.27483e-09" x2="-4.77826" y2="28.6933" gradientUnits="userSpaceOnUse">
<stop stop-color="#FA77E7"/>
<stop offset="0.5" stop-color="#616FDE"/>
<stop offset="1" stop-color="#04F8CA"/>
</linearGradient>
<linearGradient id="paint1_linear_319_27" x1="17.3475" y1="-9.27483e-09" x2="-4.77826" y2="28.6933" gradientUnits="userSpaceOnUse">
<stop stop-color="#FA77E7"/>
<stop offset="0.5" stop-color="#616FDE"/>
<stop offset="1" stop-color="#04F8CA"/>
</linearGradient>
</defs>
</svg>
