<svg width="137" height="6" viewBox="0 0 137 6" fill="none" xmlns="http://www.w3.org/2000/svg">
<mask id="mask0_396_818" style="mask-type:alpha" maskUnits="userSpaceOnUse" x="0" y="0" width="137" height="6">
<rect width="137" height="6" rx="1.38462" fill="#D9D9D9"/>
<rect width="137" height="6" rx="1.38462" fill="#52D79F"/>
</mask>
<g mask="url(#mask0_396_818)">
<rect width="137.285" height="6" rx="3" fill="#E4E4E4"/>
<path d="M3 0.230769H51.1442V5.76923H3C1.47059 5.76923 0.230769 4.5294 0.230769 3C0.230769 1.4706 1.4706 0.230769 3 0.230769Z" fill="#D9D9D9"/>
<path d="M3 0.230769H51.1442V5.76923H3C1.47059 5.76923 0.230769 4.5294 0.230769 3C0.230769 1.4706 1.4706 0.230769 3 0.230769Z" fill="url(#paint0_linear_396_818)"/>
<path d="M3 0.230769H51.1442V5.76923H3C1.47059 5.76923 0.230769 4.5294 0.230769 3C0.230769 1.4706 1.4706 0.230769 3 0.230769Z" stroke="url(#paint1_linear_396_818)" stroke-width="0.461538"/>
<path d="M17.2964 0V6M51.5464 0V6M85.7963 0V6M120.046 0V6M34.4212 0V6M68.6712 0V6M102.921 0V6" stroke="#F7F9FC"/>
</g>
<defs>
<linearGradient id="paint0_linear_396_818" x1="51" y1="3" x2="49.264" y2="12.2477" gradientUnits="userSpaceOnUse">
<stop stop-color="#516CF7"/>
<stop offset="1" stop-color="#9251F7"/>
</linearGradient>
<linearGradient id="paint1_linear_396_818" x1="38.7849" y1="-1.85497e-09" x2="38.1567" y2="9.10761" gradientUnits="userSpaceOnUse">
<stop stop-color="#516CF7"/>
<stop offset="1" stop-color="#9251F7"/>
</linearGradient>
</defs>
</svg>
